<svg width="400" height="400" viewBox="0 0 400 400" xmlns="http://www.w3.org/2000/svg">
  <defs>
    <linearGradient id="chartGradient" x1="0%" y1="0%" x2="100%" y2="100%">
      <stop offset="0%" style="stop-color:#00D4FF;stop-opacity:0.8" />
      <stop offset="100%" style="stop-color:#00FFFF;stop-opacity:0.3" />
    </linearGradient>
    <linearGradient id="figureGradient" x1="0%" y1="0%" x2="100%" y2="100%">
      <stop offset="0%" style="stop-color:#1a1a2e;stop-opacity:1" />
      <stop offset="100%" style="stop-color:#0f3460;stop-opacity:1" />
    </linearGradient>
    <filter id="chartGlow">
      <feGaussianBlur stdDeviation="2" result="coloredBlur"/>
      <feMerge> 
        <feMergeNode in="coloredBlur"/>
        <feMergeNode in="SourceGraphic"/>
      </feMerge>
    </filter>
  </defs>
  
  <!-- Background -->
  <rect width="400" height="400" fill="#0a0a0a"/>
  
  <!-- Trading Chart 1 -->
  <rect x="50" y="50" width="120" height="80" fill="none" stroke="#00D4FF" stroke-width="1" rx="5" filter="url(#chartGlow)"/>
  <rect x="55" y="55" width="110" height="70" fill="url(#chartGradient)" opacity="0.2" rx="3"/>
  
  <!-- Chart grid -->
  <g stroke="#00D4FF" stroke-width="0.5" opacity="0.5">
    <line x1="60" y1="60" x2="160" y2="60"/>
    <line x1="60" y1="80" x2="160" y2="80"/>
    <line x1="60" y1="100" x2="160" y2="100"/>
    <line x1="60" y1="120" x2="160" y2="120"/>
    <line x1="70" y1="55" x2="70" y2="125"/>
    <line x1="100" y1="55" x2="100" y2="125"/>
    <line x1="130" y1="55" x2="130" y2="125"/>
  </g>
  
  <!-- Candlestick pattern -->
  <g fill="#00FF00" stroke="#00FF00" stroke-width="1">
    <rect x="68" y="90" width="4" height="20"/>
    <line x1="70" y1="85" x2="70" y2="115"/>
    <rect x="88" y="70" width="4" height="30"/>
    <line x1="90" y1="65" x2="90" y2="105"/>
    <rect x="108" y="80" width="4" height="25"/>
    <line x1="110" y1="75" x2="110" y2="110"/>
  </g>
  
  <!-- Buy signal -->
  <rect x="140" y="110" width="25" height="12" fill="#00D4FF" rx="2">
    <animate attributeName="opacity" values="0.6;1;0.6" dur="2s" repeatCount="indefinite"/>
  </rect>
  <text x="152" y="119" text-anchor="middle" fill="black" font-family="Arial, sans-serif" font-size="8" font-weight="bold">Buy</text>
  
  <!-- Trading Chart 2 -->
  <rect x="230" y="80" width="120" height="80" fill="none" stroke="#00D4FF" stroke-width="1" rx="5" filter="url(#chartGlow)"/>
  <rect x="235" y="85" width="110" height="70" fill="url(#chartGradient)" opacity="0.2" rx="3"/>
  
  <!-- Line chart -->
  <polyline points="240,140 260,120 280,110 300,100 320,90 340,85" 
            fill="none" stroke="#00FFFF" stroke-width="2" filter="url(#chartGlow)">
    <animate attributeName="stroke-dasharray" values="0,1000;1000,0" dur="3s" repeatCount="indefinite"/>
  </polyline>
  
  <!-- Female figure -->
  <g transform="translate(200,250)">
    <!-- Head -->
    <ellipse cx="0" cy="-50" rx="20" ry="25" fill="url(#figureGradient)" stroke="#00D4FF" stroke-width="1"/>
    
    <!-- Hair -->
    <path d="M-20 -70 Q-25 -75 -20 -80 Q-10 -82 0 -80 Q10 -82 20 -80 Q25 -75 20 -70 Q10 -68 0 -68 Q-10 -68 -20 -70" fill="#DAA520" opacity="0.8"/>
    
    <!-- Glowing eyes -->
    <circle cx="-6" cy="-55" r="2" fill="#00FFFF" filter="url(#chartGlow)">
      <animate attributeName="opacity" values="0.8;1;0.8" dur="2s" repeatCount="indefinite"/>
    </circle>
    <circle cx="6" cy="-55" r="2" fill="#00FFFF" filter="url(#chartGlow)">
      <animate attributeName="opacity" values="0.8;1;0.8" dur="2s" repeatCount="indefinite"/>
    </circle>
    
    <!-- Body -->
    <ellipse cx="0" cy="-10" rx="25" ry="35" fill="url(#figureGradient)" stroke="#00D4FF" stroke-width="1"/>
    
    <!-- Arms -->
    <ellipse cx="-35" cy="-20" rx="8" ry="25" fill="url(#figureGradient)" stroke="#00D4FF" stroke-width="1" transform="rotate(-15)"/>
    <ellipse cx="35" cy="-20" rx="8" ry="25" fill="url(#figureGradient)" stroke="#00D4FF" stroke-width="1" transform="rotate(15)"/>
    
    <!-- Hand pointing to chart -->
    <circle cx="-45" cy="-35" r="6" fill="url(#figureGradient)" stroke="#00D4FF" stroke-width="1"/>
    
    <!-- Energy emanating from hand -->
    <circle cx="-45" cy="-35" r="10" fill="none" stroke="#00FFFF" stroke-width="1" opacity="0.6">
      <animate attributeName="r" values="10;15;10" dur="1.5s" repeatCount="indefinite"/>
      <animate attributeName="opacity" values="0.3;0.8;0.3" dur="1.5s" repeatCount="indefinite"/>
    </circle>
    
    <!-- MONEYKA.IA text -->
    <text x="0" y="-5" text-anchor="middle" fill="#00D4FF" font-family="Arial, sans-serif" font-size="6" font-weight="bold">MONEYKA.IA</text>
  </g>
  
  <!-- Bottom chart -->
  <rect x="100" y="300" width="200" height="60" fill="none" stroke="#00D4FF" stroke-width="1" rx="5" filter="url(#chartGlow)"/>
  <rect x="105" y="305" width="190" height="50" fill="url(#chartGradient)" opacity="0.1" rx="3"/>
  
  <!-- Bar chart -->
  <g fill="#00D4FF" opacity="0.7">
    <rect x="120" y="340" width="8" height="15">
      <animate attributeName="height" values="15;25;15" dur="2s" repeatCount="indefinite"/>
    </rect>
    <rect x="140" y="330" width="8" height="25">
      <animate attributeName="height" values="25;35;25" dur="2.5s" repeatCount="indefinite"/>
    </rect>
    <rect x="160" y="335" width="8" height="20">
      <animate attributeName="height" values="20;30;20" dur="1.8s" repeatCount="indefinite"/>
    </rect>
    <rect x="180" y="325" width="8" height="30">
      <animate attributeName="height" values="30;40;30" dur="2.2s" repeatCount="indefinite"/>
    </rect>
    <rect x="200" y="320" width="8" height="35">
      <animate attributeName="height" values="35;45;35" dur="1.9s" repeatCount="indefinite"/>
    </rect>
    <rect x="220" y="330" width="8" height="25">
      <animate attributeName="height" values="25;35;25" dur="2.1s" repeatCount="indefinite"/>
    </rect>
    <rect x="240" y="335" width="8" height="20">
      <animate attributeName="height" values="20;30;20" dur="2.3s" repeatCount="indefinite"/>
    </rect>
    <rect x="260" y="340" width="8" height="15">
      <animate attributeName="height" values="15;25;15" dur="1.7s" repeatCount="indefinite"/>
    </rect>
  </g>
  
  <!-- Lightning effects -->
  <path d="M20 200 L60 250 L40 280 L80 320" stroke="#00FFFF" stroke-width="1" fill="none" opacity="0.4">
    <animate attributeName="opacity" values="0.2;0.6;0.2" dur="3s" repeatCount="indefinite"/>
  </path>
  <path d="M380 150 L340 200 L360 230 L320 270" stroke="#00FFFF" stroke-width="1" fill="none" opacity="0.3">
    <animate attributeName="opacity" values="0.1;0.5;0.1" dur="2.5s" repeatCount="indefinite"/>
  </path>
</svg>