<svg width="400" height="400" viewBox="0 0 400 400" xmlns="http://www.w3.org/2000/svg">
  <defs>
    <linearGradient id="bodyGradient" x1="0%" y1="0%" x2="100%" y2="100%">
      <stop offset="0%" style="stop-color:#1a1a2e;stop-opacity:1" />
      <stop offset="50%" style="stop-color:#16213e;stop-opacity:1" />
      <stop offset="100%" style="stop-color:#0f3460;stop-opacity:1" />
    </linearGradient>
    <linearGradient id="lightningGradient" x1="0%" y1="0%" x2="100%" y2="100%">
      <stop offset="0%" style="stop-color:#00D4FF;stop-opacity:1" />
      <stop offset="100%" style="stop-color:#00FFFF;stop-opacity:1" />
    </linearGradient>
    <filter id="glow">
      <feGaussianBlur stdDeviation="3" result="coloredBlur"/>
      <feMerge> 
        <feMergeNode in="coloredBlur"/>
        <feMergeNode in="SourceGraphic"/>
      </feMerge>
    </filter>
  </defs>
  
  <!-- Background -->
  <rect width="400" height="400" fill="#0a0a0a"/>
  
  <!-- Lightning effects -->
  <path d="M50 50 L100 150 L80 200 L150 300" stroke="url(#lightningGradient)" stroke-width="2" fill="none" opacity="0.6" filter="url(#glow)">
    <animate attributeName="opacity" values="0.3;0.8;0.3" dur="2s" repeatCount="indefinite"/>
  </path>
  <path d="M350 80 L300 180 L320 230 L250 330" stroke="url(#lightningGradient)" stroke-width="2" fill="none" opacity="0.4" filter="url(#glow)">
    <animate attributeName="opacity" values="0.2;0.7;0.2" dur="2.5s" repeatCount="indefinite"/>
  </path>
  
  <!-- Female figure silhouette -->
  <g transform="translate(200,200)">
    <!-- Head -->
    <ellipse cx="0" cy="-80" rx="25" ry="30" fill="url(#bodyGradient)" stroke="#00D4FF" stroke-width="1"/>
    
    <!-- Hair -->
    <path d="M-25 -100 Q-35 -110 -30 -120 Q-20 -125 0 -120 Q20 -125 30 -120 Q35 -110 25 -100 Q15 -95 0 -95 Q-15 -95 -25 -100" fill="#DAA520" opacity="0.8"/>
    
    <!-- Eyes (glowing) -->
    <circle cx="-8" cy="-85" r="2" fill="#00FFFF" filter="url(#glow)">
      <animate attributeName="opacity" values="0.8;1;0.8" dur="3s" repeatCount="indefinite"/>
    </circle>
    <circle cx="8" cy="-85" r="2" fill="#00FFFF" filter="url(#glow)">
      <animate attributeName="opacity" values="0.8;1;0.8" dur="3s" repeatCount="indefinite"/>
    </circle>
    
    <!-- Body suit -->
    <ellipse cx="0" cy="-20" rx="35" ry="50" fill="url(#bodyGradient)" stroke="#00D4FF" stroke-width="1"/>
    
    <!-- Arms -->
    <ellipse cx="-45" cy="-30" rx="12" ry="35" fill="url(#bodyGradient)" stroke="#00D4FF" stroke-width="1" transform="rotate(-20)"/>
    <ellipse cx="45" cy="-30" rx="12" ry="35" fill="url(#bodyGradient)" stroke="#00D4FF" stroke-width="1" transform="rotate(20)"/>
    
    <!-- Hand with energy -->
    <circle cx="60" cy="-10" r="8" fill="url(#bodyGradient)" stroke="#00D4FF" stroke-width="1"/>
    <circle cx="60" cy="-10" r="15" fill="none" stroke="#00FFFF" stroke-width="1" opacity="0.5" filter="url(#glow)">
      <animate attributeName="r" values="15;20;15" dur="2s" repeatCount="indefinite"/>
      <animate attributeName="opacity" values="0.3;0.7;0.3" dur="2s" repeatCount="indefinite"/>
    </circle>
    
    <!-- Legs -->
    <ellipse cx="-15" cy="50" rx="12" ry="40" fill="url(#bodyGradient)" stroke="#00D4FF" stroke-width="1"/>
    <ellipse cx="15" cy="50" rx="12" ry="40" fill="url(#bodyGradient)" stroke="#00D4FF" stroke-width="1"/>
    
    <!-- MoneyKA text on suit -->
    <text x="0" y="-10" text-anchor="middle" fill="#00D4FF" font-family="Arial, sans-serif" font-size="8" font-weight="bold" opacity="0.8">MONEYKA</text>
  </g>
  
  <!-- BUY/SELL indicators -->
  <rect x="50" y="100" width="40" height="20" fill="#00D4FF" opacity="0.8" rx="3">
    <animate attributeName="opacity" values="0.5;1;0.5" dur="1.5s" repeatCount="indefinite"/>
  </rect>
  <text x="70" y="113" text-anchor="middle" fill="black" font-family="Arial, sans-serif" font-size="10" font-weight="bold">BUY</text>
  
  <rect x="310" y="150" width="40" height="20" fill="#00D4FF" opacity="0.8" rx="3">
    <animate attributeName="opacity" values="0.5;1;0.5" dur="1.8s" repeatCount="indefinite"/>
  </rect>
  <text x="330" y="163" text-anchor="middle" fill="black" font-family="Arial, sans-serif" font-size="10" font-weight="bold">SELL</text>
  
  <rect x="80" y="300" width="40" height="20" fill="#00D4FF" opacity="0.8" rx="3">
    <animate attributeName="opacity" values="0.5;1;0.5" dur="2.2s" repeatCount="indefinite"/>
  </rect>
  <text x="100" y="313" text-anchor="middle" fill="black" font-family="Arial, sans-serif" font-size="10" font-weight="bold">SELL</text>
</svg>